<?xml version="1.0" standalone="no"?>
<!DOCTYPE svg PUBLIC "-//W3C//DTD SVG 20010904//EN"
 "http://www.w3.org/TR/2001/REC-SVG-20010904/DTD/svg10.dtd">
<svg version="1.0" xmlns="http://www.w3.org/2000/svg"
 width="1024.000000pt" height="1024.000000pt" viewBox="0 0 1024.000000 1024.000000"
 preserveAspectRatio="xMidYMid meet">
<metadata>
Created by potrace 1.14, written by Peter Selinger 2001-2017
</metadata>
<g transform="translate(0.000000,1024.000000) scale(0.100000,-0.100000)"
fill="#000000" stroke="none">
<path d="M4755 10144 c-450 -41 -850 -200 -1210 -483 -65 -50 -311 -290 -381
-371 -152 -176 -371 -512 -494 -760 -129 -262 -265 -606 -350 -890 -17 -58
-35 -116 -40 -130 -11 -31 -72 -261 -94 -355 -9 -38 -21 -88 -26 -110 -14 -61
-37 -171 -54 -260 -9 -44 -20 -102 -26 -130 -5 -27 -16 -95 -25 -150 -8 -55
-20 -127 -25 -160 -14 -89 -28 -193 -35 -255 -4 -30 -9 -68 -11 -85 -12 -92
-41 -411 -54 -585 -5 -63 -14 -286 -21 -496 -24 -758 23 -1596 130 -2279 5
-33 14 -94 20 -135 6 -41 18 -111 27 -155 8 -44 19 -102 24 -130 10 -51 36
-175 64 -301 72 -330 207 -768 314 -1019 99 -233 211 -439 265 -489 68 -62
196 -118 384 -165 124 -32 438 -85 568 -97 17 -1 55 -6 85 -9 30 -4 73 -9 95
-11 441 -36 1021 -57 1360 -50 342 8 640 20 855 37 85 6 171 13 190 14 68 4
227 22 470 55 106 15 319 58 415 86 237 66 307 110 382 239 155 263 299 620
407 1007 36 130 115 452 136 553 6 33 16 78 20 100 8 34 26 134 45 240 3 17
10 62 16 100 6 39 15 97 20 130 106 683 154 1518 130 2278 -12 374 -19 494
-40 727 -25 275 -39 400 -68 600 -27 189 -32 224 -48 315 -9 50 -20 113 -25
140 -9 51 -25 127 -41 200 -5 22 -13 63 -18 91 -10 56 -81 338 -111 444 -221
777 -511 1374 -882 1820 -212 254 -401 419 -673 588 -143 88 -415 197 -605
242 -210 49 -248 52 -645 55 -209 1 -398 1 -420 -1z m680 -510 c679 -94 1145
-463 1396 -1108 104 -266 159 -542 181 -902 15 -252 2 -462 -46 -764 -123
-763 -316 -1251 -616 -1550 -170 -171 -371 -276 -625 -329 -179 -36 -310 -43
-732 -38 -446 5 -521 14 -726 81 -427 140 -715 479 -905 1066 -111 342 -201
806 -224 1163 -19 288 12 666 77 935 217 899 771 1394 1639 1462 145 11 442 3
581 -16z m1380 -5164 c32 -82 60 -150 61 -150 2 0 49 56 105 125 101 124 120
138 142 103 9 -13 -13 -46 -123 -182 -74 -92 -138 -165 -143 -163 -6 2 -34 65
-63 141 -29 76 -56 142 -61 147 -4 4 -66 -59 -138 -142 -71 -82 -135 -149
-141 -149 -11 0 -43 75 -101 234 -10 27 -23 51 -28 53 -6 2 -57 -53 -114 -122
-57 -69 -109 -125 -116 -125 -18 0 -38 27 -32 42 11 26 269 328 281 328 6 0
36 -65 66 -145 30 -80 59 -145 65 -145 5 0 69 68 140 150 72 82 133 150 136
150 4 0 32 -67 64 -150z m-3445 -10 c30 -79 59 -144 65 -144 9 0 97 95 222
239 28 33 55 57 58 53 4 -4 31 -69 60 -144 29 -76 56 -139 61 -141 5 -2 54 51
108 117 77 95 102 120 119 118 12 -2 23 -11 25 -20 4 -22 -248 -338 -267 -335
-8 1 -37 61 -67 136 -30 74 -57 138 -61 142 -5 4 -68 -59 -141 -142 -73 -82
-136 -149 -141 -149 -4 0 -32 64 -62 142 -30 78 -59 143 -65 145 -7 2 -58 -53
-115 -122 -57 -69 -108 -125 -114 -125 -15 0 -35 21 -35 36 0 7 57 81 128 164
70 84 131 158 137 166 5 8 14 13 20 11 5 -2 34 -68 65 -147z m1235 -589 c44
-16 88 -26 217 -46 28 -4 36 -10 31 -21 -7 -18 -56 -45 -98 -54 -29 -6 -31 -9
-72 -160 -23 -85 -42 -163 -43 -172 0 -10 -4 -18 -8 -18 -22 0 -102 33 -102
42 0 6 23 78 50 159 28 81 50 150 50 153 0 2 -15 14 -34 25 -36 22 -62 71 -52
96 7 18 1 19 61 -4z m-85 -889 c0 -19 -42 -158 -52 -169 -23 -28 -118 -4 -132
33 -8 20 20 110 37 121 26 16 147 28 147 15z m1097 -126 c68 -22 132 -71 163
-126 l25 -45 -3 -257 c-2 -240 -1 -258 15 -259 10 0 59 -1 108 -2 84 -2 90 -4
93 -23 3 -18 -23 -40 -135 -119 -76 -54 -153 -102 -171 -106 -23 -5 -51 -2
-85 9 -73 22 -307 22 -400 -1 -57 -14 -122 -17 -386 -17 l-317 0 -76 53 c-41
28 -107 75 -146 102 -73 51 -95 81 -71 96 8 5 89 9 181 9 l168 0 2 186 3 185
100 2 c91 2 107 5 166 34 74 37 159 106 159 131 1 10 20 49 44 87 l43 70 54 6
c30 4 135 6 234 4 137 -1 193 -6 232 -19z"/>
<path d="M4074 8851 c-32 -20 -86 -91 -119 -156 -11 -22 -24 -43 -30 -47 -5
-4 -9 -24 -8 -45 0 -25 -2 -32 -6 -19 -6 16 -9 14 -20 -15 -12 -32 -22 -56
-42 -104 -76 -182 -105 -351 -66 -383 6 -6 66 -18 132 -27 141 -21 299 -17
358 8 l39 17 -6 72 c-3 40 -6 84 -6 98 0 16 -3 21 -8 12 -5 -7 -8 8 -9 37 0
26 -5 63 -11 82 -6 19 -20 79 -33 134 -12 55 -28 114 -35 130 -7 17 -16 48
-20 70 -5 32 -8 36 -14 20 -5 -13 -7 -2 -7 31 1 53 -22 104 -46 104 -6 0 -26
-8 -43 -19z"/>
<path d="M5965 8837 c-17 -40 -31 -103 -16 -72 12 26 13 -2 1 -30 -6 -14 -9
-15 -10 -5 -1 8 -8 -5 -16 -30 -7 -25 -12 -51 -9 -58 3 -7 0 -10 -5 -7 -6 3
-10 4 -10 1 0 -3 -13 -58 -29 -123 -38 -156 -54 -249 -47 -268 3 -9 2 -14 -3
-11 -10 6 -21 -51 -21 -110 0 -33 5 -43 24 -54 14 -7 31 -10 40 -7 8 3 16 1
19 -6 5 -17 174 -21 267 -7 41 6 85 11 98 11 12 0 22 4 22 10 0 6 9 8 21 4 24
-8 59 27 59 59 -1 76 -96 390 -131 433 -6 7 -8 13 -5 13 4 0 -1 15 -11 33 -81
149 -139 231 -156 220 -6 -3 -7 -1 -3 5 7 12 -23 32 -49 32 -9 0 -22 -15 -30
-33z m-88 -389 c-3 -7 -5 -2 -5 12 0 14 2 19 5 13 2 -7 2 -19 0 -25z m86 -385
c-7 -2 -21 -2 -30 0 -10 3 -4 5 12 5 17 0 24 -2 18 -5z"/>
<path d="M3880 7865 c-36 -8 -97 -30 -136 -50 -216 -106 -213 -288 7 -389 105
-48 167 -60 304 -59 216 0 388 71 445 184 60 116 -24 230 -217 295 -65 23 -99
27 -208 30 -89 3 -150 -1 -195 -11z"/>
<path d="M5892 7865 c-148 -32 -266 -115 -293 -204 -33 -112 77 -224 271 -277
86 -23 280 -24 371 -1 192 47 301 150 284 266 -14 91 -141 182 -301 216 -85
18 -248 18 -332 0z"/>
<path d="M3717 7293 c-28 -27 23 -78 108 -108 66 -23 265 -32 354 -16 85 15
165 57 169 90 4 23 2 24 -35 17 -196 -34 -404 -33 -510 3 -68 23 -76 24 -86
14z"/>
<path d="M6305 7278 c-77 -25 -288 -35 -395 -19 -41 7 -92 15 -113 18 -36 6
-39 4 -35 -18 4 -33 84 -75 169 -90 89 -16 288 -7 354 16 69 24 117 61 113 88
-4 28 -21 29 -93 5z"/>
<path d="M3910 6981 c-8 -6 -23 -8 -33 -5 -17 5 -31 2 -110 -30 -19 -7 -38
-28 -55 -61 -53 -104 -29 -330 70 -660 17 -55 35 -103 42 -107 6 -4 8 -8 4 -8
-10 0 79 -200 109 -242 14 -21 30 -35 36 -31 5 3 7 1 3 -5 -3 -6 7 -20 23 -32
l30 -21 22 22 c30 30 69 121 84 199 0 3 8 28 17 55 31 91 60 219 55 242 -2 13
-1 26 3 28 13 8 40 135 79 370 16 100 23 191 13 176 -7 -9 -9 -6 -9 14 0 19 2
23 8 14 7 -10 8 -8 6 7 -4 32 -27 49 -82 63 -66 17 -295 26 -315 12z m-163
-503 c-3 -8 -6 -5 -6 6 -1 11 2 17 5 13 3 -3 4 -12 1 -19z"/>
<path d="M5980 6984 c-66 -10 -137 -29 -159 -43 -22 -14 -23 -18 -17 -90 8
-85 35 -268 43 -291 3 -8 5 -25 4 -37 -1 -13 3 -23 9 -23 8 0 10 -10 7 -27 -3
-15 -1 -34 3 -42 4 -9 17 -66 29 -127 11 -61 30 -139 41 -174 11 -34 20 -69
20 -77 0 -8 5 -24 12 -36 7 -12 13 -34 14 -49 1 -15 5 -35 9 -45 5 -10 9 -24
11 -31 3 -18 53 -100 64 -107 6 -3 10 -2 10 4 0 6 6 8 14 5 17 -6 81 66 108
121 10 22 22 47 27 55 5 8 13 26 18 40 6 14 20 46 32 72 12 26 19 52 16 58 -3
5 -1 10 5 10 6 0 8 5 5 10 -3 6 -2 10 3 10 12 0 35 87 27 101 -4 5 -2 9 3 9 9
0 14 13 32 95 5 22 16 69 25 105 9 36 14 78 11 95 -4 20 -3 25 3 16 6 -9 11
19 16 80 6 74 3 110 -10 164 -20 80 -37 105 -74 105 -18 0 -22 3 -13 9 36 22
-243 50 -348 35z m-23 -20 c-3 -3 -12 -4 -19 -1 -8 3 -5 6 6 6 11 1 17 -2 13
-5z m-130 -206 c-3 -7 -5 -2 -5 12 0 14 2 19 5 13 2 -7 2 -19 0 -25z"/>
<path d="M4524 5766 c-9 -23 24 -74 64 -101 104 -69 281 -99 527 -92 184 6
287 23 375 63 62 29 86 48 106 86 31 60 54 58 -532 58 -451 0 -535 -2 -540
-14z"/>
<path d="M4802 5459 c2 -8 18 -21 34 -29 42 -22 402 -21 458 1 52 20 62 45 15
35 -122 -26 -321 -34 -404 -17 -22 5 -55 12 -74 16 -27 6 -33 5 -29 -6z"/>
</g>
</svg>
